<svg width="228" height="153" viewBox="0 0 228 153" fill="none" xmlns="http://www.w3.org/2000/svg">
<circle cx="121.5" cy="70.5" r="70.5" fill="url(#paint0_linear_3102_17404)"/>
<mask id="mask0_3102_17404" style="mask-type:alpha" maskUnits="userSpaceOnUse" x="51" y="0" width="141" height="141">
<path d="M121.5 141C160.436 141 192 109.436 192 70.5V0H51V70.5C51 109.436 82.5639 141 121.5 141Z" fill="url(#paint1_linear_3102_17404)"/>
</mask>
<g mask="url(#mask0_3102_17404)">
<g filter="url(#filter0_d_3102_17404)">
<g clip-path="url(#clip0_3102_17404)">
<rect x="72.3774" width="95.9988" height="207.751" rx="9.84603" fill="white"/>
<path d="M72.3774 0H168.376V28.5535H72.3774V0Z" fill="#582DB4"/>
<rect x="88.7627" y="18.818" width="19.5708" height="1.50544" rx="0.752722" fill="#F7F7F8"/>
<path fill-rule="evenodd" clip-rule="evenodd" d="M82.2236 23.9159C84.3987 23.9159 86.162 22.1526 86.162 19.9775C86.162 17.8023 84.3987 16.039 82.2236 16.039C80.0484 16.039 78.2852 17.8023 78.2852 19.9775C78.2852 22.1526 80.0484 23.9159 82.2236 23.9159Z" fill="#F7F7F8"/>
<rect x="77.6697" y="34.5842" width="85.6605" height="27.5689" rx="1.84613" fill="white" stroke="#ECECEE" stroke-width="0.246151"/>
<rect x="81.4851" y="38.3995" width="5.90762" height="5.90762" rx="0.984603" fill="#F7F7F8"/>
<rect x="91.085" y="40.3687" width="29.5381" height="1.4769" rx="0.738452" fill="#F7F7F8"/>
<rect x="91.085" y="47.5071" width="22.3997" height="1.4769" rx="0.738452" fill="#F7F7F8"/>
<rect x="91.085" y="54.6455" width="22.3997" height="1.4769" rx="0.738452" fill="#F7F7F8"/>
<rect x="77.6697" y="98.0911" width="85.6605" height="27.5689" rx="1.84613" fill="white" stroke="#ECECEE" stroke-width="0.246151"/>
<rect x="81.4851" y="101.906" width="5.90762" height="5.90762" rx="0.984603" fill="#F7F7F8"/>
<rect x="91.085" y="103.876" width="29.5381" height="1.4769" rx="0.738452" fill="#F7F7F8"/>
<rect x="91.085" y="111.014" width="22.3997" height="1.4769" rx="0.738452" fill="#F7F7F8"/>
<rect x="91.085" y="118.152" width="22.3997" height="1.4769" rx="0.738452" fill="#F7F7F8"/>
<rect x="77.6697" y="129.845" width="85.6605" height="27.5689" rx="1.84613" fill="white" stroke="#ECECEE" stroke-width="0.246151"/>
<rect x="81.4851" y="133.66" width="5.90762" height="5.90762" rx="0.984603" fill="#F7F7F8"/>
<rect x="91.085" y="135.629" width="29.5381" height="1.4769" rx="0.738452" fill="#F7F7F8"/>
</g>
</g>
<g filter="url(#filter1_d_3102_17404)">
<rect x="66.1562" y="55.8576" width="108.688" height="34.9799" rx="2.34241" fill="white" stroke="#ECECEE" stroke-width="0.312321"/>
<circle cx="166.293" cy="79.7885" r="3.76361" fill="#F7F7F8"/>
<rect x="70.9971" y="60.6986" width="7.4957" height="7.4957" rx="1.24928" fill="#F7F7F8"/>
<rect x="83.1777" y="63.2286" width="37.4785" height="1.87393" rx="0.936963" fill="#F7F7F8"/>
<rect x="155.755" y="63.2286" width="14.3017" height="1.87428" rx="0.936963" fill="#F7F7F8"/>
<rect x="83.1777" y="72.2545" width="28.4212" height="1.87393" rx="0.936963" fill="#F7F7F8"/>
<rect x="83.4937" y="81.294" width="27.8507" height="2.25817" rx="0.936963" fill="#5B5FB3"/>
<rect x="115.108" y="81.294" width="16.5599" height="2.25817" rx="0.936963" fill="#ECECEE"/>
</g>
</g>
<g filter="url(#filter2_d_3102_17404)">
<rect x="24" y="23" width="27" height="27" rx="4" fill="white"/>
<rect x="24" y="23" width="27" height="27" rx="4" fill="white"/>
<path d="M40.625 43.5312C40.625 43.9627 40.2752 44.3125 39.8438 44.3125C39.4123 44.3125 39.0625 43.9627 39.0625 43.5312C39.0625 43.0998 39.4123 42.75 39.8438 42.75C40.2752 42.75 40.625 43.0998 40.625 43.5312Z" fill="#582DB4"/>
<path d="M35.9375 43.5312C35.9375 43.9627 35.5877 44.3125 35.1562 44.3125C34.7248 44.3125 34.375 43.9627 34.375 43.5312C34.375 43.0998 34.7248 42.75 35.1562 42.75C35.5877 42.75 35.9375 43.0998 35.9375 43.5312Z" fill="#582DB4"/>
<path fill-rule="evenodd" clip-rule="evenodd" d="M30.6761 29.4688C31.8425 29.4687 32.8313 30.3264 32.9963 31.481L34.1755 39.7355C34.2305 40.1204 34.5601 40.4063 34.9489 40.4063L42.1875 40.4062V41.9688H34.9489C33.7825 41.9688 32.7937 41.1111 32.6287 39.9565L31.4495 31.702C31.3945 31.3171 31.0649 31.0312 30.6761 31.0312L29.6875 31.0313L29.6875 29.4688L30.6761 29.4688Z" fill="#582DB4"/>
<path fill-rule="evenodd" clip-rule="evenodd" d="M34.375 31.0312H42.1394C43.6642 31.0312 44.783 32.4642 44.4132 33.9434L43.6319 37.0684C43.3711 38.1118 42.4336 38.8438 41.3582 38.8438H33.5938V37.2812H41.3582C41.7167 37.2812 42.0291 37.0373 42.1161 36.6895L42.8973 33.5645C43.0206 33.0714 42.6477 32.5938 42.1394 32.5938H34.375V31.0312Z" fill="#582DB4"/>
</g>
<path fill-rule="evenodd" clip-rule="evenodd" d="M200.25 84.5178C199.56 83.8275 198.441 83.8275 197.751 84.5178L196.705 85.5635L195.424 84.8241C194.579 84.336 193.498 84.6257 193.01 85.471L192.27 86.7519L190.842 86.3691C189.899 86.1164 188.93 86.676 188.677 87.6188L188.256 89.1877H186.955C185.979 89.1877 185.188 89.979 185.188 90.9552V92.2563L183.619 92.6767C182.676 92.9293 182.116 93.8985 182.369 94.8413L182.752 96.2699L181.471 97.0094C180.625 97.4975 180.336 98.5784 180.824 99.4238L181.563 100.705L180.518 101.75C179.827 102.441 179.827 103.56 180.518 104.25L181.564 105.296L180.824 106.577C180.336 107.422 180.626 108.503 181.471 108.991L182.752 109.73L182.369 111.159C182.117 112.102 182.676 113.071 183.619 113.324L185.188 113.744V115.045C185.188 116.021 185.979 116.813 186.955 116.813H188.256L188.677 118.382C188.929 119.324 189.899 119.884 190.841 119.631L192.27 119.249L193.009 120.529C193.497 121.375 194.578 121.664 195.424 121.176L196.705 120.437L197.751 121.483C198.441 122.173 199.56 122.173 200.25 121.483L201.296 120.437L202.577 121.176C203.423 121.664 204.504 121.375 204.992 120.529L205.731 119.249L207.16 119.631C208.102 119.884 209.072 119.324 209.324 118.382L209.745 116.813H211.046C212.022 116.813 212.813 116.021 212.813 115.045V113.744L214.382 113.324C215.325 113.071 215.884 112.102 215.632 111.159L215.249 109.73L216.53 108.991C217.375 108.503 217.665 107.422 217.177 106.577L216.437 105.296L217.483 104.25C218.173 103.56 218.173 102.441 217.483 101.75L216.437 100.705L217.177 99.4238C217.665 98.5784 217.376 97.4975 216.53 97.0094L215.249 96.2699L215.632 94.8413C215.885 93.8985 215.325 92.9293 214.382 92.6767L212.813 92.2563V90.9552C212.813 89.979 212.022 89.1877 211.046 89.1877H209.744L209.324 87.6188C209.071 86.676 208.102 86.1164 207.159 86.3691L205.731 86.7519L204.991 85.471C204.503 84.6257 203.422 84.336 202.577 84.8241L201.296 85.5635L200.25 84.5178Z" fill="#F43EAB"/>
<path d="M191.83 99.9454V106.372H190.656L187.86 102.327H187.813V106.372H186.454V99.9454H187.647L190.421 103.987H190.477V99.9454H191.83ZM198.859 103.159C198.859 103.86 198.726 104.456 198.46 104.948C198.197 105.439 197.837 105.815 197.381 106.074C196.927 106.332 196.416 106.46 195.849 106.46C195.278 106.46 194.765 106.331 194.311 106.071C193.857 105.812 193.499 105.436 193.235 104.944C192.971 104.453 192.84 103.858 192.84 103.159C192.84 102.458 192.971 101.862 193.235 101.37C193.499 100.878 193.857 100.504 194.311 100.247C194.765 99.9872 195.278 99.8575 195.849 99.8575C196.416 99.8575 196.927 99.9872 197.381 100.247C197.837 100.504 198.197 100.878 198.46 101.37C198.726 101.862 198.859 102.458 198.859 103.159ZM197.481 103.159C197.481 102.705 197.413 102.322 197.277 102.01C197.143 101.699 196.954 101.462 196.709 101.301C196.464 101.14 196.178 101.059 195.849 101.059C195.521 101.059 195.234 101.14 194.989 101.301C194.745 101.462 194.554 101.699 194.418 102.01C194.284 102.322 194.217 102.705 194.217 103.159C194.217 103.613 194.284 103.996 194.418 104.307C194.554 104.619 194.745 104.856 194.989 105.017C195.234 105.178 195.521 105.258 195.849 105.258C196.178 105.258 196.464 105.178 196.709 105.017C196.954 104.856 197.143 104.619 197.277 104.307C197.413 103.996 197.481 103.613 197.481 103.159ZM200.664 99.9454L202.217 104.828H202.277L203.833 99.9454H205.34L203.124 106.372H201.373L199.154 99.9454H200.664ZM211.657 103.159C211.657 103.86 211.524 104.456 211.258 104.948C210.995 105.439 210.635 105.815 210.179 106.074C209.725 106.332 209.214 106.46 208.647 106.46C208.076 106.46 207.564 106.331 207.11 106.071C206.656 105.812 206.297 105.436 206.033 104.944C205.77 104.453 205.638 103.858 205.638 103.159C205.638 102.458 205.77 101.862 206.033 101.37C206.297 100.878 206.656 100.504 207.11 100.247C207.564 99.9872 208.076 99.8575 208.647 99.8575C209.214 99.8575 209.725 99.9872 210.179 100.247C210.635 100.504 210.995 100.878 211.258 101.37C211.524 101.862 211.657 102.458 211.657 103.159ZM210.279 103.159C210.279 102.705 210.211 102.322 210.075 102.01C209.941 101.699 209.752 101.462 209.507 101.301C209.263 101.14 208.976 101.059 208.647 101.059C208.319 101.059 208.032 101.14 207.788 101.301C207.543 101.462 207.352 101.699 207.216 102.01C207.083 102.322 207.016 102.705 207.016 103.159C207.016 103.613 207.083 103.996 207.216 104.307C207.352 104.619 207.543 104.856 207.788 105.017C208.032 105.178 208.319 105.258 208.647 105.258C208.976 105.258 209.263 105.178 209.507 105.017C209.752 104.856 209.941 104.619 210.075 104.307C210.211 103.996 210.279 103.613 210.279 103.159Z" fill="white"/>
<defs>
<filter id="filter0_d_3102_17404" x="54.3121" y="-21.0762" width="132.129" height="243.882" filterUnits="userSpaceOnUse" color-interpolation-filters="sRGB">
<feFlood flood-opacity="0" result="BackgroundImageFix"/>
<feColorMatrix in="SourceAlpha" type="matrix" values="0 0 0 0 0 0 0 0 0 0 0 0 0 0 0 0 0 0 127 0" result="hardAlpha"/>
<feOffset dy="-3.01089"/>
<feGaussianBlur stdDeviation="9.03266"/>
<feComposite in2="hardAlpha" operator="out"/>
<feColorMatrix type="matrix" values="0 0 0 0 0.07776 0 0 0 0 0.0752 0 0 0 0 0.0848 0 0 0 0.05 0"/>
<feBlend mode="normal" in2="BackgroundImageFix" result="effect1_dropShadow_3102_17404"/>
<feBlend mode="normal" in="SourceGraphic" in2="effect1_dropShadow_3102_17404" result="shape"/>
</filter>
<filter id="filter1_d_3102_17404" x="53.9565" y="46.6688" width="133.087" height="59.3794" filterUnits="userSpaceOnUse" color-interpolation-filters="sRGB">
<feFlood flood-opacity="0" result="BackgroundImageFix"/>
<feColorMatrix in="SourceAlpha" type="matrix" values="0 0 0 0 0 0 0 0 0 0 0 0 0 0 0 0 0 0 127 0" result="hardAlpha"/>
<feOffset dy="3.01089"/>
<feGaussianBlur stdDeviation="6.02177"/>
<feComposite in2="hardAlpha" operator="out"/>
<feColorMatrix type="matrix" values="0 0 0 0 0.133333 0 0 0 0 0.054902 0 0 0 0 0.407843 0 0 0 0.05 0"/>
<feBlend mode="normal" in2="BackgroundImageFix" result="effect1_dropShadow_3102_17404"/>
<feBlend mode="normal" in="SourceGraphic" in2="effect1_dropShadow_3102_17404" result="shape"/>
</filter>
<filter id="filter2_d_3102_17404" x="0" y="5" width="75" height="75" filterUnits="userSpaceOnUse" color-interpolation-filters="sRGB">
<feFlood flood-opacity="0" result="BackgroundImageFix"/>
<feColorMatrix in="SourceAlpha" type="matrix" values="0 0 0 0 0 0 0 0 0 0 0 0 0 0 0 0 0 0 127 0" result="hardAlpha"/>
<feOffset dy="6"/>
<feGaussianBlur stdDeviation="12"/>
<feComposite in2="hardAlpha" operator="out"/>
<feColorMatrix type="matrix" values="0 0 0 0 0.07776 0 0 0 0 0.0752 0 0 0 0 0.0848 0 0 0 0.1 0"/>
<feBlend mode="normal" in2="BackgroundImageFix" result="effect1_dropShadow_3102_17404"/>
<feBlend mode="normal" in="SourceGraphic" in2="effect1_dropShadow_3102_17404" result="shape"/>
</filter>
<linearGradient id="paint0_linear_3102_17404" x1="121.5" y1="0" x2="121.5" y2="141" gradientUnits="userSpaceOnUse">
<stop stop-color="#F7F7F8" stop-opacity="0.5"/>
<stop offset="1" stop-color="#F7F7F8" stop-opacity="0.7"/>
</linearGradient>
<linearGradient id="paint1_linear_3102_17404" x1="121.5" y1="0" x2="121.5" y2="141" gradientUnits="userSpaceOnUse">
<stop offset="0.719199" stop-color="#C4C4C4"/>
<stop offset="1" stop-color="#C4C4C4" stop-opacity="0.3"/>
</linearGradient>
<clipPath id="clip0_3102_17404">
<rect x="72.3774" width="95.9988" height="207.751" rx="9.84603" fill="white"/>
</clipPath>
</defs>
</svg>
